<?xml version="1.0" encoding="UTF-8" standalone="no"?>
<!DOCTYPE svg PUBLIC "-//W3C//DTD SVG 1.1//EN"
 "http://www.w3.org/Graphics/SVG/1.1/DTD/svg11.dtd">
<!-- Generated by graphviz version 2.43.0 (0)
 -->
<!-- Title: computer_sample Pages: 1 -->
<svg width="1224pt" height="485pt"
 viewBox="0.00 0.00 1223.65 485.22" xmlns="http://www.w3.org/2000/svg" xmlns:xlink="http://www.w3.org/1999/xlink">
<g id="graph0" class="graph" transform="scale(1 1) rotate(0) translate(36 449.22)">
<title>computer_sample</title>
<polygon fill="white" stroke="transparent" points="-36,36 -36,-449.22 1187.65,-449.22 1187.65,36 -36,36"/>
<!-- 0 -->
<g id="node1" class="node">
<title>0</title>
<ellipse fill="none" stroke="black" cx="316.64" cy="-395.22" rx="36.29" ry="18"/>
<text text-anchor="middle" x="316.64" y="-391.52" font-family="Times,serif" font-size="14.00">/ (dir)</text>
</g>
<!-- 1 -->
<g id="node2" class="node">
<title>1</title>
<ellipse fill="none" stroke="black" cx="834.64" cy="-278.35" rx="38.99" ry="18"/>
<text text-anchor="middle" x="834.64" y="-274.65" font-family="Times,serif" font-size="14.00">a (dir)</text>
</g>
<!-- 0&#45;&#45;1 -->
<g id="edge13" class="edge">
<title>0&#45;&#45;1</title>
<path fill="none" stroke="black" d="M349.44,-386.95C442.18,-366.38 705.7,-307.94 800.3,-286.96"/>
</g>
<!-- 2 -->
<g id="node3" class="node">
<title>2</title>
<ellipse fill="none" stroke="black" cx="243.64" cy="-278.35" rx="70.01" ry="26.74"/>
<text text-anchor="middle" x="243.64" y="-282.15" font-family="Times,serif" font-size="14.00">b.txt (file)</text>
<text text-anchor="middle" x="243.64" y="-267.15" font-family="Times,serif" font-size="14.00">[14848514]</text>
</g>
<!-- 0&#45;&#45;2 -->
<g id="edge2" class="edge">
<title>0&#45;&#45;2</title>
<path fill="none" stroke="black" d="M306.18,-377.76C294.04,-358.66 273.87,-326.92 259.73,-304.67"/>
</g>
<!-- 3 -->
<g id="node4" class="node">
<title>3</title>
<ellipse fill="none" stroke="black" cx="73.64" cy="-278.35" rx="63.78" ry="26.74"/>
<text text-anchor="middle" x="73.64" y="-282.15" font-family="Times,serif" font-size="14.00">c.dat (file)</text>
<text text-anchor="middle" x="73.64" y="-267.15" font-family="Times,serif" font-size="14.00">[8504156]</text>
</g>
<!-- 0&#45;&#45;3 -->
<g id="edge1" class="edge">
<title>0&#45;&#45;3</title>
<path fill="none" stroke="black" d="M291.09,-382.14C249.18,-362.33 165.42,-322.74 114.97,-298.89"/>
</g>
<!-- 4 -->
<g id="node5" class="node">
<title>4</title>
<ellipse fill="none" stroke="black" cx="389.64" cy="-278.35" rx="39.79" ry="18"/>
<text text-anchor="middle" x="389.64" y="-274.65" font-family="Times,serif" font-size="14.00">d (dir)</text>
</g>
<!-- 0&#45;&#45;4 -->
<g id="edge7" class="edge">
<title>0&#45;&#45;4</title>
<path fill="none" stroke="black" d="M327.1,-377.76C340.98,-355.93 365.33,-317.6 379.2,-295.78"/>
</g>
<!-- 5 -->
<g id="node6" class="node">
<title>5</title>
<ellipse fill="none" stroke="black" cx="1110.64" cy="-152.61" rx="38.99" ry="18"/>
<text text-anchor="middle" x="1110.64" y="-148.91" font-family="Times,serif" font-size="14.00">e (dir)</text>
</g>
<!-- 1&#45;&#45;5 -->
<g id="edge12" class="edge">
<title>1&#45;&#45;5</title>
<path fill="none" stroke="black" d="M861.61,-265.26C914.37,-241.6 1030.71,-189.44 1083.56,-165.75"/>
</g>
<!-- 6 -->
<g id="node7" class="node">
<title>6</title>
<ellipse fill="none" stroke="black" cx="703.64" cy="-152.61" rx="50.82" ry="26.74"/>
<text text-anchor="middle" x="703.64" y="-156.41" font-family="Times,serif" font-size="14.00">f (file)</text>
<text text-anchor="middle" x="703.64" y="-141.41" font-family="Times,serif" font-size="14.00">[29116]</text>
</g>
<!-- 1&#45;&#45;6 -->
<g id="edge8" class="edge">
<title>1&#45;&#45;6</title>
<path fill="none" stroke="black" d="M818.31,-261.93C795.54,-240.42 754.09,-201.26 727.75,-176.38"/>
</g>
<!-- 7 -->
<g id="node8" class="node">
<title>7</title>
<ellipse fill="none" stroke="black" cx="834.64" cy="-152.61" rx="44.6" ry="26.74"/>
<text text-anchor="middle" x="834.64" y="-156.41" font-family="Times,serif" font-size="14.00">g (file)</text>
<text text-anchor="middle" x="834.64" y="-141.41" font-family="Times,serif" font-size="14.00">[2557]</text>
</g>
<!-- 1&#45;&#45;7 -->
<g id="edge9" class="edge">
<title>1&#45;&#45;7</title>
<path fill="none" stroke="black" d="M834.64,-260.14C834.64,-239.29 834.64,-203.95 834.64,-179.73"/>
</g>
<!-- 8 -->
<g id="node9" class="node">
<title>8</title>
<ellipse fill="none" stroke="black" cx="975.64" cy="-152.61" rx="60.21" ry="26.74"/>
<text text-anchor="middle" x="975.64" y="-156.41" font-family="Times,serif" font-size="14.00">h.lst (file)</text>
<text text-anchor="middle" x="975.64" y="-141.41" font-family="Times,serif" font-size="14.00">[62596]</text>
</g>
<!-- 1&#45;&#45;8 -->
<g id="edge10" class="edge">
<title>1&#45;&#45;8</title>
<path fill="none" stroke="black" d="M851.93,-262.18C876.2,-240.88 920.57,-201.94 949.06,-176.94"/>
</g>
<!-- 10 -->
<g id="node11" class="node">
<title>10</title>
<ellipse fill="none" stroke="black" cx="63.64" cy="-152.61" rx="63.78" ry="26.74"/>
<text text-anchor="middle" x="63.64" y="-156.41" font-family="Times,serif" font-size="14.00">j (file)</text>
<text text-anchor="middle" x="63.64" y="-141.41" font-family="Times,serif" font-size="14.00">[4060174]</text>
</g>
<!-- 4&#45;&#45;10 -->
<g id="edge3" class="edge">
<title>4&#45;&#45;10</title>
<path fill="none" stroke="black" d="M360.13,-266.15C303.24,-244.56 177.98,-197.01 109.9,-171.17"/>
</g>
<!-- 11 -->
<g id="node12" class="node">
<title>11</title>
<ellipse fill="none" stroke="black" cx="226.64" cy="-152.61" rx="63.78" ry="26.74"/>
<text text-anchor="middle" x="226.64" y="-156.41" font-family="Times,serif" font-size="14.00">d.log (file)</text>
<text text-anchor="middle" x="226.64" y="-141.41" font-family="Times,serif" font-size="14.00">[8033020]</text>
</g>
<!-- 4&#45;&#45;11 -->
<g id="edge4" class="edge">
<title>4&#45;&#45;11</title>
<path fill="none" stroke="black" d="M369.98,-262.42C341.78,-241.02 289.63,-201.43 256.61,-176.36"/>
</g>
<!-- 12 -->
<g id="node13" class="node">
<title>12</title>
<ellipse fill="none" stroke="black" cx="389.64" cy="-152.61" rx="63.78" ry="26.74"/>
<text text-anchor="middle" x="389.64" y="-156.41" font-family="Times,serif" font-size="14.00">d.ext (file)</text>
<text text-anchor="middle" x="389.64" y="-141.41" font-family="Times,serif" font-size="14.00">[5626152]</text>
</g>
<!-- 4&#45;&#45;12 -->
<g id="edge5" class="edge">
<title>4&#45;&#45;12</title>
<path fill="none" stroke="black" d="M389.64,-260.14C389.64,-239.29 389.64,-203.95 389.64,-179.73"/>
</g>
<!-- 13 -->
<g id="node14" class="node">
<title>13</title>
<ellipse fill="none" stroke="black" cx="552.64" cy="-152.61" rx="63.78" ry="26.74"/>
<text text-anchor="middle" x="552.64" y="-156.41" font-family="Times,serif" font-size="14.00">k (file)</text>
<text text-anchor="middle" x="552.64" y="-141.41" font-family="Times,serif" font-size="14.00">[7214296]</text>
</g>
<!-- 4&#45;&#45;13 -->
<g id="edge6" class="edge">
<title>4&#45;&#45;13</title>
<path fill="none" stroke="black" d="M409.3,-262.42C437.5,-241.02 489.65,-201.43 522.67,-176.36"/>
</g>
<!-- 9 -->
<g id="node10" class="node">
<title>9</title>
<ellipse fill="none" stroke="black" cx="1110.64" cy="-26.87" rx="41.02" ry="26.74"/>
<text text-anchor="middle" x="1110.64" y="-30.67" font-family="Times,serif" font-size="14.00">i (file)</text>
<text text-anchor="middle" x="1110.64" y="-15.67" font-family="Times,serif" font-size="14.00">[584]</text>
</g>
<!-- 5&#45;&#45;9 -->
<g id="edge11" class="edge">
<title>5&#45;&#45;9</title>
<path fill="none" stroke="black" d="M1110.64,-134.4C1110.64,-113.55 1110.64,-78.21 1110.64,-53.99"/>
</g>
</g>
</svg>
